<svg width="113" height="33" viewBox="0 0 113 33" fill="none" xmlns="http://www.w3.org/2000/svg">
<g clip-path="url(#clip0_22_1175)">
<path fill-rule="evenodd" clip-rule="evenodd" d="M19.4105 16.081C21.2679 16.4763 22.7598 17.4036 23.8863 18.8632C25.0129 20.2922 25.5762 21.9342 25.5762 23.7889C25.5762 26.4646 24.6324 28.5931 22.7445 30.1741C20.8872 31.7249 18.284 32.5002 14.9348 32.5002H6.50815L13.6505 26.6856L14.5573 27.7898L15.4655 28.8927L15.5377 28.903C15.6243 28.9148 15.7172 28.8498 15.7423 28.7603C15.7517 28.7262 16.1407 26.8193 16.6076 24.5199C16.702 24.0549 16.7945 23.599 16.8824 23.1656C17.2295 21.456 17.5054 20.0963 17.5456 19.9069C17.5931 19.6691 17.6278 19.4417 17.62 19.403C17.6085 19.3273 17.5608 19.2786 17.4835 19.2619C17.4464 19.2523 8.15534 19.3006 8.02714 19.3094C7.93428 19.316 7.85178 19.3937 7.8459 19.4808L7.84148 19.5535L8.74023 20.6642L9.64058 21.7735L2.49479 27.591C1.5444 28.3646 0.718161 29.0372 0 29.6218V0.482719H14.4323C17.6902 0.482719 20.2326 1.22767 22.0595 2.71756C23.9168 4.20745 24.8455 6.22945 24.8455 8.78355C24.8455 10.6687 24.3431 12.2346 23.3383 13.4813C22.364 14.7279 21.0548 15.5945 19.4105 16.081ZM7.80988 13.4357H12.9251C14.2039 13.4357 15.1783 13.162 15.8481 12.6147C16.5484 12.037 16.8986 11.2008 16.8986 10.1062C16.8986 9.0116 16.5484 8.17543 15.8481 7.59771C15.1783 7.02001 14.2039 6.73115 12.9251 6.73115H7.80988V13.4357Z" fill="#1058DF"/>
<path d="M34.8588 24.5838H43.2319V29.5111H28.4668V3.30645H34.8588V24.5838ZM62.2421 24.8823H52.4485L50.8785 29.5111H44.1874L53.682 3.30645H61.0833L70.5778 29.5111H63.8121L62.2421 24.8823ZM60.5973 19.955L57.3452 10.3616L54.1306 19.955H60.5973ZM79.8969 24.2852H91.1857V29.5111H72.6452V24.6585L83.8592 8.53246H72.6452V3.30645H91.1857V8.15917L79.8969 24.2852ZM101.379 8.42048V13.7211H109.939V18.6485H101.379V24.3972H111.061V29.5111H94.9874V3.30645H111.061V8.42048H101.379Z" fill="black"/>
</g>
<defs>
<clipPath id="clip0_22_1175">
<rect width="113" height="32.1023" fill="white" transform="translate(0 0.448864)"/>
</clipPath>
</defs>
</svg>
