<svg width="138" height="39" viewBox="0 0 138 39" fill="none" xmlns="http://www.w3.org/2000/svg">
<g id="Frame 1 1">
<path id="Vector" fill-rule="evenodd" clip-rule="evenodd" d="M23.5812 18.9909C25.8376 19.4712 27.6501 20.5978 29.0187 22.3709C30.3874 24.107 31.0717 26.1018 31.0717 28.3551C31.0717 31.6057 29.9251 34.1915 27.6316 36.1122C25.3752 37.9962 22.2126 38.9381 18.1437 38.9381H7.90654L16.5835 31.8741L17.6852 33.2156L18.7886 34.5555L18.8763 34.5681C18.9815 34.5824 19.0943 34.5033 19.1248 34.3946C19.1362 34.3533 19.6088 32.0366 20.176 29.2431C20.2907 28.6782 20.4031 28.1243 20.5099 27.5978C20.9315 25.5209 21.2667 23.8691 21.3155 23.6389C21.3732 23.3501 21.4154 23.0738 21.4059 23.0267C21.392 22.9348 21.334 22.8756 21.2401 22.8553C21.1951 22.8437 9.90765 22.9023 9.75191 22.9131C9.6391 22.9211 9.53887 23.0155 9.53173 23.1213L9.52636 23.2096L10.6182 24.5589L11.712 25.9067L3.03084 32.9741C1.87624 33.9139 0.872471 34.731 0 35.4413V0.0411301H17.5334C21.4913 0.0411301 24.5799 0.94614 26.7993 2.75617C29.0557 4.56618 30.184 7.02265 30.184 10.1255C30.184 12.4158 29.5736 14.3181 28.3529 15.8327C27.1693 17.3472 25.5788 18.3999 23.5812 18.9909ZM9.48797 15.7773H15.7023C17.2559 15.7773 18.4396 15.4448 19.2534 14.7798C20.1041 14.078 20.5296 13.0622 20.5296 11.7324C20.5296 10.4026 20.1041 9.38676 19.2534 8.6849C18.4396 7.98307 17.2559 7.63214 15.7023 7.63214H9.48797V15.7773Z" fill="white"/>
<path id="Vector_2" d="M42.3479 29.3208H52.5201V35.3068H34.5824V3.47159H42.3479V29.3208ZM75.6149 29.6834H63.717L61.8097 35.3068H53.6809L65.2155 3.47159H74.2071L85.7417 35.3068H77.5222L75.6149 29.6834ZM73.6167 23.6974L69.6659 12.0426L65.7605 23.6974H73.6167ZM97.0631 28.9579H110.778V35.3068H88.2533V29.4115L101.877 9.8205H88.2533V3.47159H110.778V9.367L97.0631 28.9579ZM123.161 9.68445V16.124H133.561V22.1102H123.161V29.094H134.923V35.3068H115.396V3.47159H134.923V9.68445H123.161Z" fill="white"/>
</g>
</svg>
