<svg width="80" height="80" viewBox="0 0 80 80" fill="none" xmlns="http://www.w3.org/2000/svg">
<g id="Check - Free icons-2 1" clip-path="url(#clip0_1_479)">
<g id="Group">
<path id="Vector" d="M80.0002 40.0001L70.9439 29.9451L72.3618 16.484L59.119 13.6806L52.3638 1.94565L40.0003 7.4713L38.3315 40.0001L40.0003 72.5287L52.364 78.0543L59.119 66.3195L72.3618 63.516L70.9439 50.0548L80.0002 40.0001Z" fill="#0ED678"/>
<path id="Vector_2" d="M27.6362 1.94565L20.8813 13.6806L7.63839 16.4842L9.05637 29.9451L0 40.0001L9.05637 50.0548L7.63839 63.516L20.8813 66.3195L27.6364 78.0543L40.0001 72.5287V7.4713L27.6362 1.94565Z" fill="#04EB84"/>
<path id="Vector_3" d="M56.7692 31.2416L53.2679 28.1164L40.0003 42.9808L38.3315 46.6748L40.0003 50.0287L56.7692 31.2416Z" fill="#F7F0EB"/>
<path id="Vector_4" d="M26.0567 36.4656L22.7383 39.7842L36.6905 53.7365L40 50.0287V42.9807L36.4968 46.9055L26.0567 36.4656Z" fill="#FFFBF5"/>
</g>
</g>
<defs>
<clipPath id="clip0_1_479">
<rect width="80" height="80" fill="white"/>
</clipPath>
</defs>
</svg>
